<svg xmlns="http://www.w3.org/2000/svg" viewBox="0 0 142.8 28" role="img" aria-labelledby="title">
  <title id="title">COHI ENERGY</title>
  <g fill="#363636" transform="scale(0.08)">
    <path d="M325.36,417V373.73a131,131,0,0,1-13.81,6.65v41.86C316.24,420.68,320.86,418.94,325.36,417Z" transform="translate(-81.1 -81.26)"/>
    <path d="M353,353.07a127.25,127.25,0,0,1-13.82,11.79v45.46c4.74-2.57,9.35-5.36,13.82-8.33Z" transform="translate(-81.1 -81.26)"/>
    <rect x="258.08" y="155.59" width="13.82" height="42.24"/>
    <path d="M311.55,307.86a67.22,67.22,0,0,0,13.81-26.54V236.09a67.26,67.26,0,0,0-13.81-26.69Z" transform="translate(-81.1 -81.26)"/>
    <path d="M311.55,136.42a132.78,132.78,0,0,1,13.81,6.63V95.53c-4.5-1.94-9.12-3.68-13.81-5.25Z" transform="translate(-81.1 -81.26)"/>
    <path d="M339.18,151.85A129.4,129.4,0,0,1,353,163.5v-53q-6.71-4.47-13.82-8.33Z" transform="translate(-81.1 -81.26)"/>
    <path d="M187.29,258.89c0,68.07,69,88.21,110.44,61.08V197.26C256.32,170.15,187.29,190.69,187.29,258.89Z" transform="translate(-81.1 -81.26)"/>
    <path d="M297.73,385.17a143,143,0,0,1-39.82,5.57c-73.56,0-133.14-56.19-133.14-131.85s59.58-132.95,133.14-132.95a142.34,142.34,0,0,1,39.82,5.65V86.29a175,175,0,1,0,0,340Z" transform="translate(-81.1 -81.26)"/>
    <path d="M366.81,179.51a121.53,121.53,0,0,1,13.82,24.7V133.34a175.24,175.24,0,0,0-13.82-12.59Z" transform="translate(-81.1 -81.26)"/>
    <path d="M380.63,311.89a126.47,126.47,0,0,1-13.82,24.93v55a175.24,175.24,0,0,0,13.82-12.59Z" transform="translate(-81.1 -81.26)"/>
    <path d="M422.07,200.79v111a174.92,174.92,0,0,0,0-111Z" transform="translate(-81.1 -81.26)"/>
    <rect x="285.71" y="155.59" width="13.82" height="42.24"/>
    <path d="M408.26,169.85a175,175,0,0,0-13.82-20.7V363.38a175,175,0,0,0,13.82-20.7Z" transform="translate(-81.1 -81.26)"/>
  </g>
  <path fill="#152420" d="M35.60 13.98Q35.60 12.22 36.36 10.83Q37.13 9.45 38.49 8.68Q39.86 7.91 41.59 7.91Q43.71 7.91 45.22 9.03Q46.73 10.15 47.23 12.08L44.05 12.08Q43.69 11.33 43.04 10.94Q42.38 10.55 41.55 10.55Q40.21 10.55 39.38 11.49Q38.55 12.42 38.55 13.98Q38.55 15.54 39.38 16.47Q40.21 17.41 41.55 17.41Q42.38 17.41 43.04 17.02Q43.69 16.63 44.05 15.88L47.23 15.88Q46.73 17.81 45.22 18.92Q43.71 20.03 41.59 20.03Q39.86 20.03 38.49 19.26Q37.13 18.49 36.36 17.12Q35.60 15.74 35.60 13.98 M54.31 20.07Q52.63 20.07 51.23 19.29Q49.83 18.51 49.01 17.11Q48.18 15.71 48.18 13.96Q48.18 12.22 49.01 10.83Q49.83 9.43 51.23 8.65Q52.63 7.87 54.31 7.87Q55.99 7.87 57.38 8.65Q58.78 9.43 59.59 10.83Q60.40 12.22 60.40 13.96Q60.40 15.71 59.58 17.11Q58.77 18.51 57.38 19.29Q55.99 20.07 54.31 20.07M54.31 17.42Q55.73 17.42 56.59 16.47Q57.44 15.52 57.44 13.96Q57.44 12.39 56.59 11.44Q55.73 10.50 54.31 10.50Q52.86 10.50 52.01 11.44Q51.15 12.37 51.15 13.96Q51.15 15.54 52.01 16.48Q52.86 17.42 54.31 17.42 M69.08 8.04L71.98 8.04L71.98 19.95L69.08 19.95L69.08 15.05L64.57 15.05L64.57 19.95L61.67 19.95L61.67 8.04L64.57 8.04L64.57 12.71L69.08 12.71 M73.73 8.04L76.63 8.04L76.63 19.95L73.73 19.95"/>
  <path fill="#152420" d="M85.22 9.06L80.22 9.06L80.22 13.49L84.72 13.49L84.72 14.47L80.22 14.47L80.22 18.97L85.22 18.97L85.22 19.95L79.03 19.95L79.03 8.08L85.22 8.08 M97.18 8.09L97.18 19.95L95.99 19.95L89.43 9.98L89.43 19.95L88.24 19.95L88.24 8.09L89.43 8.09L95.99 18.05L95.99 8.09 M106.75 9.06L101.74 9.06L101.74 13.49L106.24 13.49L106.24 14.47L101.74 14.47L101.74 18.97L106.75 18.97L106.75 19.95L100.56 19.95L100.56 8.08L106.75 8.08 M117.50 19.95L116.07 19.95L113.14 15L110.95 15L110.95 19.95L109.77 19.95L109.77 8.09L113.33 8.09Q115.31 8.09 116.34 9.04Q117.36 9.99 117.36 11.54Q117.36 12.83 116.63 13.73Q115.89 14.64 114.45 14.91L117.50 19.95M110.95 9.10L110.95 14.03L113.34 14.03Q114.74 14.03 115.44 13.35Q116.14 12.67 116.14 11.54Q116.14 10.37 115.46 9.73Q114.79 9.10 113.33 9.10 M131.12 11.55L129.73 11.55Q129.22 10.38 128.18 9.71Q127.13 9.04 125.73 9.04Q124.40 9.04 123.35 9.66Q122.30 10.27 121.69 11.39Q121.08 12.52 121.08 14.01Q121.08 15.51 121.69 16.64Q122.30 17.78 123.35 18.39Q124.40 19 125.73 19Q126.96 19 127.96 18.47Q128.95 17.93 129.55 16.94Q130.15 15.95 130.24 14.62L125.25 14.62L125.25 13.66L131.49 13.66L131.49 14.52Q131.41 16.08 130.64 17.35Q129.88 18.61 128.60 19.34Q127.32 20.07 125.73 20.07Q124.08 20.07 122.74 19.30Q121.40 18.53 120.63 17.14Q119.86 15.76 119.86 14.01Q119.86 12.27 120.63 10.88Q121.40 9.50 122.74 8.73Q124.08 7.96 125.73 7.96Q127.62 7.96 129.05 8.91Q130.47 9.86 131.12 11.55 M140.85 8.09L142.18 8.09L138.38 15.34L138.38 19.95L137.19 19.95L137.19 15.34L133.36 8.09L134.70 8.09L137.78 14.25"/>
</svg>
