<svg id="Layer_1" data-name="Layer 1" xmlns="http://www.w3.org/2000/svg" viewBox="0 0 350 350"><defs><style>.cls-1{fill:#363636;}</style></defs><path class="cls-1" d="M325.36,417V373.73a131,131,0,0,1-13.81,6.65v41.86C316.24,420.68,320.86,418.94,325.36,417Z" transform="translate(-81.1 -81.26)"/><path class="cls-1" d="M353,353.07a127.25,127.25,0,0,1-13.82,11.79v45.46c4.74-2.57,9.35-5.36,13.82-8.33Z" transform="translate(-81.1 -81.26)"/><rect class="cls-1" x="258.08" y="155.59" width="13.82" height="42.24"/><path class="cls-1" d="M311.55,307.86a67.22,67.22,0,0,0,13.81-26.54V236.09a67.26,67.26,0,0,0-13.81-26.69Z" transform="translate(-81.1 -81.26)"/><path class="cls-1" d="M311.55,136.42a132.78,132.78,0,0,1,13.81,6.63V95.53c-4.5-1.94-9.12-3.68-13.81-5.25Z" transform="translate(-81.1 -81.26)"/><path class="cls-1" d="M339.18,151.85A129.4,129.4,0,0,1,353,163.5v-53q-6.71-4.47-13.82-8.33Z" transform="translate(-81.1 -81.26)"/><path class="cls-1" d="M187.29,258.89c0,68.07,69,88.21,110.44,61.08V197.26C256.32,170.15,187.29,190.69,187.29,258.89Z" transform="translate(-81.1 -81.26)"/><path class="cls-1" d="M297.73,385.17a143,143,0,0,1-39.82,5.57c-73.56,0-133.14-56.19-133.14-131.85s59.58-132.95,133.14-132.95a142.34,142.34,0,0,1,39.82,5.65V86.29a175,175,0,1,0,0,340Z" transform="translate(-81.1 -81.26)"/><path class="cls-1" d="M366.81,179.51a121.53,121.53,0,0,1,13.82,24.7V133.34a175.24,175.24,0,0,0-13.82-12.59Z" transform="translate(-81.1 -81.26)"/><path class="cls-1" d="M380.63,311.89a126.47,126.47,0,0,1-13.82,24.93v55a175.24,175.24,0,0,0,13.82-12.59Z" transform="translate(-81.1 -81.26)"/><path class="cls-1" d="M422.07,200.79v111a174.92,174.92,0,0,0,0-111Z" transform="translate(-81.1 -81.26)"/><rect class="cls-1" x="285.71" y="155.59" width="13.82" height="42.24"/><path class="cls-1" d="M408.26,169.85a175,175,0,0,0-13.82-20.7V363.38a175,175,0,0,0,13.82-20.7Z" transform="translate(-81.1 -81.26)"/></svg>